<?xml version="1.0" standalone="no"?>
<!DOCTYPE svg PUBLIC "-//W3C//DTD SVG 20010904//EN"
 "http://www.w3.org/TR/2001/REC-SVG-20010904/DTD/svg10.dtd">
<svg version="1.0" xmlns="http://www.w3.org/2000/svg"
 width="122.000000pt" height="101.000000pt" viewBox="0 0 122.000000 101.000000"
 preserveAspectRatio="xMidYMid meet">
<metadata>
Created by potrace 1.13, written by Peter Selinger 2001-2015
</metadata>
<g transform="translate(0.000000,101.000000) scale(0.100000,-0.100000)"
fill="#000000" stroke="none">
<path d="M451 979 c-16 -45 -14 -115 4 -149 l15 -30 33 20 c17 11 40 20 49 20
47 0 22 112 -29 131 -15 6 -35 17 -44 25 -15 14 -18 12 -28 -17z"/>
<path d="M775 799 c-58 -14 -175 -70 -175 -83 0 -6 11 -100 24 -209 l23 -199
107 -106 107 -107 20 24 c13 16 19 36 17 55 -3 31 -12 37 -80 51 -61 12 -37
94 39 127 55 24 84 20 149 -22 65 -41 111 -41 159 1 43 38 59 93 52 176 -12
120 -78 211 -194 266 -73 33 -175 44 -248 26z m10 -86 c1 -11 8 -28 17 -37 21
-21 13 -44 -18 -52 -13 -3 -24 -12 -24 -20 0 -22 -38 -38 -56 -23 -8 7 -13 18
-10 25 3 7 -1 17 -8 23 -7 6 -12 27 -11 48 2 35 5 38 39 44 20 3 39 9 43 13
12 12 28 0 28 -21z m170 17 c3 -5 19 -7 35 -3 25 4 30 2 30 -13 0 -11 14 -27
31 -36 25 -15 28 -21 20 -37 -6 -10 -24 -24 -40 -29 -16 -6 -34 -20 -41 -31
-22 -42 -78 -14 -66 33 5 19 1 28 -14 36 -24 13 -26 35 -5 44 8 3 15 15 15 26
0 20 24 28 35 10z m-87 -256 c12 -8 22 -26 22 -38 0 -18 -10 -27 -45 -40 -25
-10 -56 -31 -69 -48 -32 -42 -56 -33 -56 21 0 28 8 49 27 71 41 50 82 61 121
34z"/>
<path d="M204 731 c-56 -34 -100 -111 -92 -162 2 -17 11 -22 43 -24 22 -1 56
-5 75 -9 35 -7 36 -7 58 41 19 40 21 54 12 83 -5 19 -10 47 -10 62 0 24 -4 28
-27 28 -16 0 -42 -9 -59 -19z"/>
<path d="M532 724 c-17 -11 -22 -25 -22 -57 0 -41 15 -192 25 -252 5 -28 -1
-23 -74 49 -44 44 -83 78 -85 75 -3 -3 -12 -22 -21 -42 l-15 -37 106 -109 106
-110 13 -107 c14 -115 30 -148 63 -127 14 9 16 23 14 84 l-3 74 83 -82 c46
-46 90 -83 99 -83 19 0 39 20 39 39 0 8 -54 69 -119 135 l-119 121 -21 190
c-32 283 -27 268 -69 239z"/>
<path d="M365 356 c-9 -47 2 -121 25 -167 21 -40 74 -90 121 -115 l31 -16 -7
84 c-4 46 -11 90 -15 98 -5 8 -40 46 -79 84 l-70 69 -6 -37z"/>
</g>
</svg>
