<?xml version="1.0" standalone="no"?>
<!DOCTYPE svg PUBLIC "-//W3C//DTD SVG 20010904//EN"
 "http://www.w3.org/TR/2001/REC-SVG-20010904/DTD/svg10.dtd">
<svg version="1.0" xmlns="http://www.w3.org/2000/svg"
 width="1024.000000pt" height="1024.000000pt" viewBox="0 0 1024.000000 1024.000000"
 preserveAspectRatio="xMidYMid meet">
<metadata>
Created by potrace 1.13, written by Peter Selinger 2001-2015
</metadata>
<g transform="translate(0.000000,1024.000000) scale(0.100000,-0.100000)"
fill="#000000" stroke="none">
<path d="M4910 9379 c-1211 -86 -2242 -889 -2624 -2042 -201 -605 -201 -1203
-1 -1899 303 -1055 1099 -2437 2213 -3838 266 -334 607 -740 622 -740 9 0 225
251 404 470 529 647 1020 1327 1408 1950 674 1084 1060 2017 1154 2790 31 256
21 580 -27 856 -185 1071 -972 1974 -2015 2314 -365 119 -752 166 -1134 139z
m425 -1935 c101 -21 158 -41 260 -91 328 -163 545 -479 586 -855 20 -186 -16
-379 -105 -563 -63 -129 -125 -214 -227 -310 -360 -341 -907 -386 -1326 -108
-76 50 -194 162 -255 243 -62 81 -150 260 -177 360 -126 464 78 959 496 1204
217 127 497 172 748 120z"/>
</g>
</svg>
