<?xml version="1.0" standalone="no"?>
<!DOCTYPE svg PUBLIC "-//W3C//DTD SVG 20010904//EN"
 "http://www.w3.org/TR/2001/REC-SVG-20010904/DTD/svg10.dtd">
<svg version="1.0" xmlns="http://www.w3.org/2000/svg"
 width="600.000000pt" height="600.000000pt" viewBox="0 0 600.000000 600.000000"
 preserveAspectRatio="xMidYMid meet">
<metadata>
Created by potrace 1.13, written by Peter Selinger 2001-2015
</metadata>
<g transform="translate(0.000000,600.000000) scale(0.100000,-0.100000)"
fill="#000000" stroke="none">
<path d="M2710 5546 c-600 -77 -1106 -322 -1520 -736 -393 -393 -640 -884
-726 -1445 -23 -148 -27 -561 -6 -695 49 -325 128 -576 262 -840 335 -656 953
-1143 1672 -1320 222 -55 318 -65 608 -65 290 0 386 10 608 65 352 86 719 267
996 490 436 352 753 850 886 1392 55 222 65 318 65 608 0 207 -4 290 -18 378
-104 648 -434 1220 -937 1624 -353 283 -755 457 -1234 535 -129 20 -522 26
-656 9z m422 -908 c31 -14 77 -47 102 -71 181 -182 130 -480 -102 -594 -50
-25 -68 -28 -152 -28 -82 0 -103 4 -152 27 -79 37 -142 98 -181 177 -29 59
-32 74 -32 156 0 76 4 99 26 145 45 96 124 170 219 204 71 25 200 18 272 -16z
m258 -1998 l0 -920 195 0 195 0 0 -195 0 -195 -780 0 -780 0 0 195 0 195 195
0 195 0 0 770 0 770 -192 2 -193 3 -3 148 -3 147 586 0 585 0 0 -920z"/>
</g>
</svg>
