<?xml version="1.0" standalone="no"?>
<!DOCTYPE svg PUBLIC "-//W3C//DTD SVG 20010904//EN"
 "http://www.w3.org/TR/2001/REC-SVG-20010904/DTD/svg10.dtd">
<svg version="1.0" xmlns="http://www.w3.org/2000/svg"
 width="626.000000pt" height="626.000000pt" viewBox="0 0 626.000000 626.000000"
 preserveAspectRatio="xMidYMid meet">
<metadata>
Created by potrace 1.13, written by Peter Selinger 2001-2015
</metadata>
<g transform="translate(0.000000,626.000000) scale(0.100000,-0.100000)"
fill="#000000" stroke="none">
<path d="M6054 5939 c-65 -29 -149 -48 -269 -59 -127 -12 -189 -29 -290 -81
-134 -68 -257 -174 -360 -311 -59 -78 -89 -141 -115 -243 -23 -94 -25 -166 -6
-255 46 -215 172 -370 369 -451 334 -139 722 47 821 392 27 95 56 301 56 399
-1 105 -19 250 -45 350 -28 113 -98 282 -115 279 -3 0 -23 -9 -46 -20z"/>
<path d="M2680 5660 c-490 -43 -939 -182 -1310 -403 -774 -462 -1273 -1274
-1360 -2212 -44 -484 65 -1037 285 -1441 54 -99 138 -234 175 -282 180 -234
372 -420 645 -623 93 -69 124 -90 244 -162 174 -104 375 -184 546 -218 126
-24 329 -26 441 -3 428 85 806 440 1212 1139 100 171 207 222 427 203 257 -22
572 34 776 137 155 79 302 203 415 350 47 61 130 204 153 262 11 29 25 60 30
70 18 32 69 196 90 288 32 140 41 209 48 360 6 145 -4 435 -16 435 -5 0 -139
-177 -319 -423 -153 -209 -202 -268 -353 -417 -139 -138 -219 -189 -333 -212
-145 -28 -293 47 -373 189 -59 106 -76 178 -76 323 0 103 5 141 26 218 31 111
65 186 122 269 43 60 64 107 244 533 51 118 103 240 116 270 13 30 52 120 85
200 34 80 86 204 116 275 30 72 60 138 65 149 13 22 -8 46 -131 150 -365 309
-756 480 -1280 561 -122 19 -561 28 -710 15z m-34 -651 c87 -27 143 -59 203
-118 122 -119 176 -304 136 -466 -46 -187 -180 -323 -366 -369 -166 -41 -341
8 -463 130 -66 67 -102 127 -127 216 -73 260 77 532 335 608 85 26 197 25 282
-1z m-1105 -852 c87 -27 164 -72 224 -133 184 -185 195 -466 26 -667 -224
-268 -663 -215 -817 98 -136 278 2 598 301 696 62 21 206 24 266 6z m-286
-1282 c211 -55 365 -253 367 -470 2 -236 -154 -436 -384 -490 -81 -19 -132
-19 -221 1 -258 58 -426 319 -372 579 58 278 336 451 610 380z m1007 -1004
c143 -49 271 -180 313 -317 54 -179 7 -370 -122 -499 -98 -98 -210 -145 -348
-145 -276 0 -495 217 -495 490 0 87 26 188 68 259 66 113 214 213 347 234 56
10 180 -2 237 -22z"/>
<path d="M4930 4805 c-12 -28 -42 -97 -66 -155 -25 -58 -55 -127 -67 -154
l-22 -49 75 -69 c213 -195 478 -331 685 -352 l51 -5 89 121 c50 67 120 162
157 212 37 50 65 92 63 94 -2 2 -32 -6 -67 -19 -54 -20 -82 -23 -203 -24 -158
0 -233 17 -355 84 -97 53 -226 185 -277 286 l-42 80 -21 -50z"/>
<path d="M4631 4103 c-8 -17 -77 -178 -206 -483 -29 -69 -69 -163 -90 -210
-124 -289 -143 -374 -114 -509 25 -116 99 -181 206 -181 155 1 258 80 463 360
58 79 141 192 185 251 192 260 280 380 283 389 2 5 -13 12 -34 16 -140 26
-438 188 -613 334 -33 27 -62 50 -65 50 -3 0 -9 -8 -15 -17z"/>
</g>
</svg>
